<svg version="1.1" id="Layer_1" xmlns="http://www.w3.org/2000/svg" xmlns:xlink="http://www.w3.org/1999/xlink" x="0px" y="0px"
	 width="100%" viewBox="0 0 1078 1080" enable-background="new 0 0 1078 1080" xml:space="preserve">
<path fill="#000000" opacity="1.000000" stroke="none" 
	d="
M606.000000,1081.000000 
	C404.023285,1081.000000 202.546555,1081.000000 1.034914,1081.000000 
	C1.034914,721.064880 1.034914,361.129730 1.034914,1.097292 
	C360.226959,1.097292 719.453918,1.097292 1078.840454,1.097292 
	C1078.840454,360.999939 1078.840454,720.999939 1078.840454,1081.000000 
	C921.462646,1081.000000 763.981323,1081.000000 606.000000,1081.000000 
M391.457428,668.834473 
	C391.278290,668.152466 391.099152,667.470398 390.800781,666.323730 
	C390.446411,666.008911 390.092041,665.694031 389.281433,664.867371 
	C386.703339,662.255554 384.139771,659.629150 381.544952,657.033997 
	C340.703552,616.187439 299.852631,575.350342 259.045105,534.470032 
	C258.027954,533.451050 257.480103,531.963684 256.285645,529.986938 
	C289.435272,529.986938 321.526611,529.986938 354.784973,529.986938 
	C353.392456,527.847107 352.700775,526.269226 351.569550,525.126343 
	C341.382019,514.833984 331.233582,504.498016 320.835175,494.420959 
	C313.699310,487.505524 304.948212,483.834839 294.126953,483.026489 
	C291.207001,482.688110 288.290710,482.101410 285.366394,482.058136 
	C276.710083,481.930023 268.050568,482.008728 259.392303,482.020325 
	C221.265991,482.071533 183.139664,482.127563 144.167755,482.040558 
	C141.778000,482.299561 139.388245,482.558594 136.998489,482.817627 
	C136.794861,483.438507 136.591217,484.059387 136.387589,484.680267 
	C138.610703,486.635712 140.949677,488.475189 143.039963,490.563568 
	C195.693390,543.169250 248.356857,595.764893 300.928955,648.451721 
	C315.326050,662.880188 332.717590,669.903687 352.889435,669.936890 
	C364.987091,669.956787 377.086060,669.213562 389.714233,668.948059 
	C390.075256,668.902039 390.436310,668.856079 391.457428,668.834473 
M600.016724,417.796112 
	C603.752014,424.046936 607.427490,430.334473 611.233459,436.541962 
	C624.602600,458.346985 638.024841,480.119507 651.411194,501.913971 
	C661.386230,518.154358 671.355774,534.398132 681.293823,550.661072 
	C693.866638,571.235474 706.403992,591.831421 718.958496,612.416870 
	C727.951721,627.162964 736.538513,642.177185 746.042114,656.586731 
	C759.282837,676.662537 778.712463,677.155151 792.605835,659.176636 
	C803.299194,645.338989 811.517151,629.580322 820.742310,614.618164 
	C832.335999,595.814392 843.841675,576.956299 855.371399,558.113159 
	C863.696289,544.507690 871.989685,530.882874 880.313171,517.276489 
	C891.941895,498.266968 903.574097,479.259460 915.226562,460.264496 
	C924.246643,445.560760 933.226685,430.831390 942.397339,416.221863 
	C944.369446,413.080292 943.644531,411.928284 940.292358,412.047607 
	C937.187744,412.158142 934.103149,412.847809 930.998840,412.949402 
	C912.377686,413.558746 894.336914,417.017273 877.090393,424.109741 
	C867.579407,428.021027 858.324036,432.901154 852.396118,441.507416 
	C844.204895,453.399414 836.941040,465.933228 829.358948,478.240784 
	C821.987732,490.205872 814.746826,502.251160 807.392212,514.226501 
	C799.636108,526.855530 791.852966,539.468323 784.004639,552.040283 
	C779.146179,559.822815 774.144287,567.515808 769.017151,575.546082 
	C767.699951,573.512573 766.793640,572.163513 765.937195,570.783569 
	C756.483398,555.550903 747.012085,540.329041 737.595520,525.073425 
	C725.782593,505.935394 714.039734,486.754150 702.219421,467.620697 
	C696.741638,458.753784 692.170654,449.068756 685.407898,441.305847 
	C669.921814,423.529572 649.376709,415.398529 625.574768,413.227783 
	C617.615662,413.156525 609.656128,413.027832 601.697815,413.078827 
	C600.565063,413.086121 599.437866,413.965454 598.308105,414.441223 
	C598.862427,415.311401 599.416687,416.181580 600.016724,417.796112 
M364.907867,461.992371 
	C367.556824,462.107941 370.281342,461.862885 372.842102,462.399353 
	C386.455872,465.251617 397.742920,471.854126 405.855652,483.425354 
	C410.939270,490.676117 414.188446,498.707428 413.861542,507.527740 
	C413.555328,515.790894 410.354675,523.305359 405.057831,529.853516 
	C396.638458,540.261963 386.114197,547.258667 372.053131,550.036255 
	C352.692108,550.081604 333.331055,550.126953 313.165924,550.017822 
	C311.804565,550.140564 310.443176,550.263306 308.691925,550.421143 
	C309.208374,551.750427 309.302948,552.660950 309.803833,553.177368 
	C313.801361,557.299133 317.880035,561.342102 321.926117,565.416931 
	C347.975708,591.651245 373.927948,617.983521 400.142303,644.052124 
	C406.271820,650.147522 412.861938,655.983459 420.008026,660.799438 
	C428.215088,666.330505 438.093811,667.878723 447.818604,668.920837 
	C454.363220,669.622131 460.978363,669.822205 467.566467,669.910339 
	C472.638214,669.978271 477.726959,669.650879 482.789001,669.254517 
	C486.163544,668.990295 489.504364,668.295959 492.912018,667.214355 
	C492.507324,666.595642 492.102631,665.976990 491.252289,664.862244 
	C487.151520,660.721497 483.082642,656.548523 478.936798,652.453369 
	C476.819336,650.361816 476.073395,649.146240 479.213531,646.721741 
	C482.750977,643.990540 485.682159,640.182129 488.104919,636.353699 
	C495.579529,624.542358 502.652924,612.477844 509.943054,600.548889 
	C523.106323,579.009521 536.297424,557.487183 549.510254,535.978271 
	C555.424805,526.350159 561.419861,516.771545 567.877136,506.366882 
	C574.656128,517.274109 581.148987,527.605652 587.527039,538.007507 
	C600.135986,558.571106 612.663940,579.184265 625.260437,599.755493 
	C631.712830,610.292908 638.818420,620.477783 644.594910,631.370178 
	C652.605225,646.474792 665.320557,656.007080 680.548279,661.666748 
	C691.869995,665.874756 704.125000,667.961304 716.149353,669.746094 
	C723.547791,670.844238 731.294373,669.596863 739.235596,669.393677 
	C738.741516,667.730835 738.710571,667.385620 738.549500,667.119141 
	C730.036682,653.036926 721.579285,638.920654 712.975708,624.894104 
	C697.717590,600.018616 682.362671,575.202515 667.061829,550.353271 
	C653.731689,528.704346 640.367676,507.076080 627.115723,485.379333 
	C614.890259,465.363098 602.892029,445.207550 590.597778,425.233978 
	C584.749939,415.733398 575.833191,410.550385 564.767212,411.221680 
	C553.761292,411.889374 546.558594,419.356018 540.948669,428.180267 
	C535.393860,436.917877 530.227417,445.901306 524.795471,454.718292 
	C515.228271,470.247406 505.549744,485.707977 495.990173,501.241730 
	C485.763763,517.859070 475.627228,534.531738 465.439423,551.172852 
	C457.293915,564.478027 449.164093,577.792908 440.956909,591.059937 
	C438.037567,595.779053 434.910980,600.369873 431.707825,605.281799 
	C427.039215,600.577820 422.989227,596.385437 418.811096,592.324829 
	C415.790222,589.388916 416.253387,587.013550 419.620880,584.867798 
	C429.239014,578.739197 438.177338,571.803711 444.948669,562.494507 
	C449.443604,556.314941 454.573639,550.354858 457.770782,543.524780 
	C464.242554,529.699097 468.523499,515.262390 466.112122,499.484863 
	C464.444611,488.574249 461.577637,478.194611 456.081573,468.643646 
	C447.921143,454.462494 436.636658,443.146942 423.751709,433.170746 
	C404.322205,418.127472 382.543427,410.928528 357.063629,412.030121 
	C331.622192,412.021149 306.180756,411.986633 280.739349,412.009338 
	C245.490311,412.040771 210.241302,412.115234 174.313614,412.024445 
	C170.285965,412.473389 170.624496,414.177216 172.991241,416.528839 
	C178.934738,422.434479 184.737061,428.488678 190.827362,434.238220 
	C196.610214,439.697601 202.264252,445.453003 208.749130,449.965698 
	C215.643707,454.763489 222.707932,459.979095 232.248993,460.873169 
	C269.743561,460.910980 307.238251,460.909210 344.732574,461.024689 
	C351.161560,461.044464 357.589050,461.564484 364.907867,461.992371 
z"/>
<path fill="#2EC2B2" opacity="1.000000" stroke="none" 
	d="
M492.860291,667.794067 
	C489.504364,668.295959 486.163544,668.990295 482.789001,669.254517 
	C477.726959,669.650879 472.638214,669.978271 467.566467,669.910339 
	C460.978363,669.822205 454.363220,669.622131 447.818604,668.920837 
	C438.093811,667.878723 428.215088,666.330505 420.008026,660.799438 
	C412.861938,655.983459 406.271820,650.147522 400.142303,644.052124 
	C373.927948,617.983521 347.975708,591.651245 321.926117,565.416931 
	C317.880035,561.342102 313.801361,557.299133 309.803833,553.177368 
	C309.302948,552.660950 309.208374,551.750427 308.691925,550.421143 
	C310.443176,550.263306 311.804565,550.140564 313.560608,550.368286 
	C314.904175,551.176697 315.845154,552.015991 316.803223,552.035889 
	C334.367035,552.401123 351.932556,552.721497 369.499115,552.834167 
	C370.652679,552.841614 371.817505,551.102417 372.977081,550.175598 
	C386.114197,547.258667 396.638458,540.261963 405.057831,529.853516 
	C410.354675,523.305359 413.555328,515.790894 413.861542,507.527740 
	C414.188446,498.707428 410.939270,490.676117 405.855652,483.425354 
	C397.742920,471.854126 386.455872,465.251617 372.842102,462.399353 
	C370.281342,461.862885 367.556824,462.107941 364.634583,461.731140 
	C365.136444,457.953583 362.308105,459.527527 360.473633,459.043701 
	C318.024872,459.041809 276.038147,459.041107 233.752747,459.125031 
	C232.907959,459.498474 232.361801,459.787292 231.815659,460.076080 
	C222.707932,459.979095 215.643707,454.763489 208.749130,449.965698 
	C202.264252,445.453003 196.610214,439.697601 190.827362,434.238220 
	C184.737061,428.488678 178.934738,422.434479 172.991241,416.528839 
	C170.624496,414.177216 170.285965,412.473389 174.869385,412.407776 
	C177.142960,413.199432 178.860352,413.962830 180.578583,413.964661 
	C237.942795,414.025482 295.307129,414.030151 352.671265,413.934723 
	C354.445618,413.931793 356.218109,412.780853 357.991486,412.165100 
	C382.543427,410.928528 404.322205,418.127472 423.751709,433.170746 
	C436.636658,443.146942 447.921143,454.462494 456.081573,468.643646 
	C461.577637,478.194611 464.444611,488.574249 466.112122,499.484863 
	C468.523499,515.262390 464.242554,529.699097 457.770782,543.524780 
	C454.573639,550.354858 449.443604,556.314941 444.948669,562.494507 
	C438.177338,571.803711 429.239014,578.739197 419.620880,584.867798 
	C416.253387,587.013550 415.790222,589.388916 418.811096,592.324829 
	C422.989227,596.385437 427.039215,600.577820 431.707825,605.281799 
	C434.910980,600.369873 438.037567,595.779053 440.956909,591.059937 
	C449.164093,577.792908 457.293915,564.478027 465.439423,551.172852 
	C475.627228,534.531738 485.763763,517.859070 495.990173,501.241730 
	C505.549744,485.707977 515.228271,470.247406 524.795471,454.718292 
	C530.227417,445.901306 535.393860,436.917877 540.948669,428.180267 
	C546.558594,419.356018 553.761292,411.889374 564.767212,411.221680 
	C575.833191,410.550385 584.749939,415.733398 590.597778,425.233978 
	C602.892029,445.207550 614.890259,465.363098 627.115723,485.379333 
	C640.367676,507.076080 653.731689,528.704346 667.061829,550.353271 
	C682.362671,575.202515 697.717590,600.018616 712.975708,624.894104 
	C721.579285,638.920654 730.036682,653.036926 738.549500,667.119141 
	C738.710571,667.385620 738.741516,667.730835 739.235596,669.393677 
	C731.294373,669.596863 723.547791,670.844238 716.149353,669.746094 
	C704.125000,667.961304 691.869995,665.874756 680.548279,661.666748 
	C665.320557,656.007080 652.605225,646.474792 644.594910,631.370178 
	C638.818420,620.477783 631.712830,610.292908 625.260437,599.755493 
	C612.663940,579.184265 600.135986,558.571106 587.527039,538.007507 
	C581.148987,527.605652 574.656128,517.274109 567.877136,506.366882 
	C561.419861,516.771545 555.424805,526.350159 549.510254,535.978271 
	C536.297424,557.487183 523.106323,579.009521 509.943054,600.548889 
	C502.652924,612.477844 495.579529,624.542358 488.104919,636.353699 
	C485.682159,640.182129 482.750977,643.990540 479.213531,646.721741 
	C476.073395,649.146240 476.819336,650.361816 478.936798,652.453369 
	C483.082642,656.548523 487.151520,660.721497 491.089722,665.387451 
	C488.342987,666.285583 485.761993,666.952271 483.174011,666.980530 
	C472.183472,667.100708 461.190857,667.031555 450.199005,667.031555 
	C450.201660,667.285706 450.204346,667.539917 450.207001,667.794067 
	C464.424774,667.794067 478.642517,667.794067 492.860291,667.794067 
z"/>
<path fill="#2EC2B2" opacity="1.000000" stroke="none" 
	d="
M626.047668,413.958710 
	C649.376709,415.398529 669.921814,423.529572 685.407898,441.305847 
	C692.170654,449.068756 696.741638,458.753784 702.219421,467.620697 
	C714.039734,486.754150 725.782593,505.935394 737.595520,525.073425 
	C747.012085,540.329041 756.483398,555.550903 765.937195,570.783569 
	C766.793640,572.163513 767.699951,573.512573 769.017151,575.546082 
	C774.144287,567.515808 779.146179,559.822815 784.004639,552.040283 
	C791.852966,539.468323 799.636108,526.855530 807.392212,514.226501 
	C814.746826,502.251160 821.987732,490.205872 829.358948,478.240784 
	C836.941040,465.933228 844.204895,453.399414 852.396118,441.507416 
	C858.324036,432.901154 867.579407,428.021027 877.090393,424.109741 
	C894.336914,417.017273 912.377686,413.558746 930.998840,412.949402 
	C934.103149,412.847809 937.187744,412.158142 940.292358,412.047607 
	C943.644531,411.928284 944.369446,413.080292 942.397339,416.221863 
	C933.226685,430.831390 924.246643,445.560760 915.226562,460.264496 
	C903.574097,479.259460 891.941895,498.266968 880.313171,517.276489 
	C871.989685,530.882874 863.696289,544.507690 855.371399,558.113159 
	C843.841675,576.956299 832.335999,595.814392 820.742310,614.618164 
	C811.517151,629.580322 803.299194,645.338989 792.605835,659.176636 
	C778.712463,677.155151 759.282837,676.662537 746.042114,656.586731 
	C736.538513,642.177185 727.951721,627.162964 718.958496,612.416870 
	C706.403992,591.831421 693.866638,571.235474 681.293823,550.661072 
	C671.355774,534.398132 661.386230,518.154358 651.411194,501.913971 
	C638.024841,480.119507 624.602600,458.346985 611.233459,436.541962 
	C607.427490,430.334473 603.752014,424.046936 600.010742,417.163696 
	C600.015381,416.357727 600.026001,416.184143 600.415283,415.842285 
	C603.882507,415.434692 606.968628,415.152466 610.060425,414.965637 
	C615.265076,414.651184 620.473328,414.397247 625.772095,414.078247 
	C625.864075,414.038635 626.047668,413.958710 626.047668,413.958710 
z"/>
<path fill="#2EC2B1" opacity="1.000000" stroke="none" 
	d="
M389.184418,668.813293 
	C377.086060,669.213562 364.987091,669.956787 352.889435,669.936890 
	C332.717590,669.903687 315.326050,662.880188 300.928955,648.451721 
	C248.356857,595.764893 195.693390,543.169250 143.039963,490.563568 
	C140.949677,488.475189 138.610703,486.635712 136.387589,484.680267 
	C136.591217,484.059387 136.794861,483.438507 136.998489,482.817627 
	C139.388245,482.558594 141.778000,482.299561 144.768921,482.405426 
	C147.695862,483.385315 150.001724,484.404083 152.352127,484.519989 
	C155.811035,484.690521 159.301544,484.046661 162.778839,484.043610 
	C207.270157,484.004456 251.761520,484.017792 296.099701,484.017792 
	C295.952850,483.904938 295.471680,483.535156 294.990540,483.165375 
	C304.948212,483.834839 313.699310,487.505524 320.835175,494.420959 
	C331.233582,504.498016 341.382019,514.833984 351.569550,525.126343 
	C352.700775,526.269226 353.392456,527.847107 354.784973,529.986938 
	C321.526611,529.986938 289.435272,529.986938 256.285645,529.986938 
	C257.480103,531.963684 258.027954,533.451050 259.045105,534.470032 
	C299.852631,575.350342 340.703552,616.187439 381.544952,657.033997 
	C384.139771,659.629150 386.703339,662.255554 389.120911,665.399658 
	C384.215118,666.295288 379.473389,666.903992 374.723877,666.972534 
	C363.864594,667.129395 353.001526,667.022095 342.139984,667.022095 
	C355.541473,668.018616 368.938324,667.981628 382.334564,668.054321 
	C384.619171,668.066711 386.901184,668.548401 389.184418,668.813293 
z"/>
<path fill="#3CCABC" opacity="1.000000" stroke="none" 
	d="
M357.527557,412.097595 
	C356.218109,412.780853 354.445618,413.931793 352.671265,413.934723 
	C295.307129,414.030151 237.942795,414.025482 180.578583,413.964661 
	C178.860352,413.962830 177.142960,413.199432 175.208725,412.481171 
	C210.241302,412.115234 245.490311,412.040771 280.739349,412.009338 
	C306.180756,411.986633 331.622192,412.021149 357.527557,412.097595 
z"/>
<path fill="#3CCABC" opacity="1.000000" stroke="none" 
	d="
M294.558746,483.095947 
	C295.471680,483.535156 295.952850,483.904938 296.099701,484.017792 
	C251.761520,484.017792 207.270157,484.004456 162.778839,484.043610 
	C159.301544,484.046661 155.811035,484.690521 152.352127,484.519989 
	C150.001724,484.404083 147.695862,483.385315 145.191711,482.476074 
	C183.139664,482.127563 221.265991,482.071533 259.392303,482.020325 
	C268.050568,482.008728 276.710083,481.930023 285.366394,482.058136 
	C288.290710,482.101410 291.207001,482.688110 294.558746,483.095947 
z"/>
<path fill="#3EC5B8" opacity="1.000000" stroke="none" 
	d="
M372.515106,550.105957 
	C371.817505,551.102417 370.652679,552.841614 369.499115,552.834167 
	C351.932556,552.721497 334.367035,552.401123 316.803223,552.035889 
	C315.845154,552.015991 314.904175,551.176697 313.962646,550.445557 
	C333.331055,550.126953 352.692108,550.081604 372.515106,550.105957 
z"/>
<path fill="#3EC5B8" opacity="1.000000" stroke="none" 
	d="
M360.935638,459.044861 
	C362.308105,459.527527 365.136444,457.953583 364.189270,461.661682 
	C357.589050,461.564484 351.161560,461.044464 344.732574,461.024689 
	C307.238251,460.909210 269.743561,460.910980 232.032318,460.474609 
	C232.361801,459.787292 232.907959,459.498474 234.106873,459.324158 
	C236.401093,459.629547 238.042404,459.985809 239.683975,459.987061 
	C278.157166,460.015991 316.630432,460.020508 355.103546,459.963409 
	C357.048004,459.960541 358.991638,459.364655 360.935638,459.044861 
z"/>
<path fill="#5DAFA9" opacity="1.000000" stroke="none" 
	d="
M389.449341,668.880676 
	C386.901184,668.548401 384.619171,668.066711 382.334564,668.054321 
	C368.938324,667.981628 355.541473,668.018616 342.139984,667.022095 
	C353.001526,667.022095 363.864594,667.129395 374.723877,666.972534 
	C379.473389,666.903992 384.215118,666.295288 389.349030,665.655518 
	C390.092041,665.694031 390.446411,666.008911 390.840240,666.895020 
	C390.852234,667.914246 390.824768,668.362122 390.797333,668.810059 
	C390.436310,668.856079 390.075256,668.902039 389.449341,668.880676 
z"/>
<path fill="#5DAFA9" opacity="1.000000" stroke="none" 
	d="
M492.886169,667.504211 
	C478.642517,667.794067 464.424774,667.794067 450.207001,667.794067 
	C450.204346,667.539917 450.201660,667.285706 450.199005,667.031555 
	C461.190857,667.031555 472.183472,667.100708 483.174011,666.980530 
	C485.761993,666.952271 488.342987,666.285583 491.312561,665.635437 
	C492.102631,665.976990 492.507324,666.595642 492.886169,667.504211 
z"/>
<path fill="#2EC2B1" opacity="1.000000" stroke="none" 
	d="
M600.036682,416.010559 
	C600.026001,416.184143 600.015381,416.357727 599.987793,416.791534 
	C599.416687,416.181580 598.862427,415.311401 598.308105,414.441223 
	C599.437866,413.965454 600.565063,413.086121 601.697815,413.078827 
	C609.656128,413.027832 617.615662,413.156525 625.811218,413.593262 
	C626.047668,413.958710 625.864075,414.038635 625.334839,414.073059 
	C618.250549,414.066986 611.691467,413.887268 605.143311,414.080109 
	C603.423645,414.130768 601.737976,415.335724 600.036682,416.010559 
z"/>
<path fill="#2EC2B1" opacity="1.000000" stroke="none" 
	d="
M391.127380,668.822266 
	C390.824768,668.362122 390.852234,667.914246 390.899841,667.127319 
	C391.099152,667.470398 391.278290,668.152466 391.127380,668.822266 
z"/>
<path fill="#5DAFA9" opacity="1.000000" stroke="none" 
	d="
M360.473633,459.043701 
	C358.991638,459.364655 357.048004,459.960541 355.103546,459.963409 
	C316.630432,460.020508 278.157166,460.015991 239.683975,459.987061 
	C238.042404,459.985809 236.401093,459.629547 234.405518,459.239502 
	C276.038147,459.041107 318.024872,459.041809 360.473633,459.043701 
z"/>
<path fill="#5DAFA9" opacity="1.000000" stroke="none" 
	d="
M600.415283,415.842285 
	C601.737976,415.335724 603.423645,414.130768 605.143311,414.080109 
	C611.691467,413.887268 618.250549,414.066986 625.242798,414.112671 
	C620.473328,414.397247 615.265076,414.651184 610.060425,414.965637 
	C606.968628,415.152466 603.882507,415.434692 600.415283,415.842285 
z"/>
</svg>