<svg version="1.1" id="Layer_1" xmlns="http://www.w3.org/2000/svg" xmlns:xlink="http://www.w3.org/1999/xlink" x="0px" y="0px"
	 width="100%" viewBox="0 0 1078 1080" enable-background="new 0 0 1078 1080" xml:space="preserve">
<path fill="#FFFFFF" opacity="1.000000" stroke="none" 
	d="
M594.000000,1081.000000 
	C396.022827,1081.000000 198.545624,1081.000000 1.034221,1081.000000 
	C1.034221,721.064392 1.034221,361.128815 1.034221,1.096599 
	C360.227386,1.096599 719.454834,1.096599 1078.841064,1.096599 
	C1078.841064,360.999939 1078.841064,720.999939 1078.841064,1081.000000 
	C917.461670,1081.000000 755.980835,1081.000000 594.000000,1081.000000 
M707.185669,667.246765 
	C717.248779,667.842651 727.311890,668.438599 738.810303,669.119446 
	C737.101990,665.993530 736.389709,664.543091 735.548218,663.171997 
	C718.132202,634.794922 700.692993,606.432190 683.276001,578.055786 
	C652.095459,527.255249 620.941223,476.438477 589.744263,425.648010 
	C579.952942,409.707123 561.414612,407.354950 548.218079,420.444366 
	C545.524414,423.116089 543.076172,426.168671 541.088562,429.398773 
	C508.981781,481.576538 476.971130,533.813416 444.928711,586.030884 
	C440.792114,592.772034 436.600159,599.479187 432.862000,605.511230 
	C426.415283,599.441162 420.305481,593.688416 414.711823,588.421570 
	C423.452789,580.855408 432.649597,573.910461 440.630035,565.772705 
	C456.609131,549.478577 465.899689,529.846191 465.726288,506.670746 
	C465.578583,486.933533 458.368866,469.465820 445.507751,454.691376 
	C423.697662,429.636536 397.681519,412.772003 362.825531,412.937836 
	C300.674652,413.233551 238.521591,413.067719 176.369446,413.109802 
	C174.824280,413.110840 173.279251,413.285736 171.734161,413.379547 
	C171.489258,413.852051 171.244370,414.324524 170.999466,414.797028 
	C183.529022,426.176849 195.681702,438.012329 208.710251,448.788879 
	C218.695084,457.047852 230.604691,460.436127 243.978653,460.251740 
	C280.296661,459.751129 316.626617,459.983032 352.950653,460.163116 
	C360.245789,460.199280 367.619659,460.788269 374.811646,461.991943 
	C393.221436,465.073090 411.612274,483.117218 413.901489,499.747040 
	C417.286407,524.336365 394.153717,550.974426 369.217987,551.121277 
	C356.221497,551.197815 343.224091,551.129272 330.227112,551.127197 
	C323.469818,551.126099 316.712524,551.127014 309.112305,551.127014 
	C310.372192,552.701111 310.979248,553.630981 311.749603,554.396484 
	C324.270325,566.838074 336.831848,579.238770 349.343903,591.689087 
	C368.228149,610.480225 387.031525,629.352905 405.966583,648.092651 
	C416.762695,658.777344 429.182312,666.669006 444.838531,667.260620 
	C460.462799,667.851013 476.114441,667.717590 491.754425,667.866394 
	C491.922882,667.868042 492.095825,667.397095 492.902954,666.214661 
	C487.042847,660.705505 481.033661,655.056213 474.573975,648.983398 
	C485.060120,642.456604 489.378021,631.818726 495.227509,622.445618 
	C514.001648,592.362610 532.428040,562.062561 550.994751,531.850098 
	C556.450073,522.972900 561.925964,514.108398 567.667358,504.792053 
	C568.739929,506.256500 569.473816,507.123718 570.061646,508.080627 
	C592.544312,544.678955 614.937927,581.332275 637.537781,617.858093 
	C643.209106,627.024109 648.387390,636.910950 655.812988,644.485413 
	C669.404907,658.349792 687.039795,664.995056 707.185669,667.246765 
M701.163025,467.287506 
	C695.331543,458.190430 690.486572,448.230103 683.449341,440.188171 
	C671.325989,426.334076 655.004700,419.249390 636.976868,415.933929 
	C624.505981,413.640472 612.018616,413.425446 598.573486,414.280884 
	C600.223145,417.096619 601.421021,419.228088 602.699219,421.310272 
	C629.523193,465.008331 656.358826,508.699188 683.186646,552.394897 
	C704.441833,587.014221 725.662476,621.654907 746.952454,656.252808 
	C757.208496,672.919739 775.996521,674.973694 789.498169,660.887817 
	C791.898071,658.384094 794.018188,655.527954 795.846191,652.573792 
	C809.245972,630.918640 822.539490,609.197632 835.864563,587.496155 
	C870.880676,530.468018 905.898010,473.440704 940.890381,416.397980 
	C941.433044,415.513336 941.661682,414.436005 942.279724,412.809570 
	C917.473755,414.483856 893.457825,416.481506 871.329590,427.500702 
	C862.423889,431.935486 854.715515,437.950134 849.454834,446.664337 
	C846.705322,451.218872 843.884033,455.730042 841.104980,460.266815 
	C823.540283,488.941589 806.008667,517.636658 788.399170,546.283875 
	C782.199585,556.369507 775.811829,566.339539 768.845459,577.419128 
	C745.939148,540.133362 723.750977,504.016510 701.163025,467.287506 
M377.990936,654.509216 
	C336.739166,613.239563 295.487366,571.969910 254.235596,530.700256 
	C254.411804,530.255310 254.588013,529.810303 254.764221,529.365356 
	C287.675232,529.365356 320.586212,529.365356 353.497223,529.365356 
	C353.653076,528.938232 353.808899,528.511169 353.964752,528.084045 
	C343.696198,517.911438 333.203735,507.952667 323.223602,497.504486 
	C313.721283,487.556427 301.979218,483.237732 288.728638,483.181030 
	C240.071411,482.972778 191.412704,483.100586 142.754562,483.114014 
	C141.336990,483.114410 139.919464,483.249847 137.343552,483.381561 
	C139.275238,485.431061 140.439972,486.731720 141.672363,487.964752 
	C164.640564,510.945099 187.617355,533.916870 210.591324,556.891418 
	C240.986389,587.287354 271.256439,617.809753 301.832062,648.022949 
	C315.397278,661.427368 331.706085,668.789490 351.241364,668.208496 
	C363.062592,667.856873 374.901825,668.118958 386.732819,668.069397 
	C387.927216,668.064392 389.120605,667.810120 391.558411,667.527161 
	C386.641724,662.820557 382.564117,658.917114 377.990936,654.509216 
z"/>
<path fill="#30C2B2" opacity="1.000000" stroke="none" 
	d="
M706.744751,667.196777 
	C687.039795,664.995056 669.404907,658.349792 655.812988,644.485413 
	C648.387390,636.910950 643.209106,627.024109 637.537781,617.858093 
	C614.937927,581.332275 592.544312,544.678955 570.061646,508.080627 
	C569.473816,507.123718 568.739929,506.256500 567.667358,504.792053 
	C561.925964,514.108398 556.450073,522.972900 550.994751,531.850098 
	C532.428040,562.062561 514.001648,592.362610 495.227509,622.445618 
	C489.378021,631.818726 485.060120,642.456604 474.573975,648.983398 
	C481.033661,655.056213 487.042847,660.705505 492.902954,666.214661 
	C492.095825,667.397095 491.922882,667.868042 491.754425,667.866394 
	C476.114441,667.717590 460.462799,667.851013 444.838531,667.260620 
	C429.182312,666.669006 416.762695,658.777344 405.966583,648.092651 
	C387.031525,629.352905 368.228149,610.480225 349.343903,591.689087 
	C336.831848,579.238770 324.270325,566.838074 311.749603,554.396484 
	C310.979248,553.630981 310.372192,552.701111 309.112305,551.127014 
	C316.712524,551.127014 323.469818,551.126099 330.227112,551.127197 
	C343.224091,551.129272 356.221497,551.197815 369.217987,551.121277 
	C394.153717,550.974426 417.286407,524.336365 413.901489,499.747040 
	C411.612274,483.117218 393.221436,465.073090 374.811646,461.991943 
	C367.619659,460.788269 360.245789,460.199280 352.950653,460.163116 
	C316.626617,459.983032 280.296661,459.751129 243.978653,460.251740 
	C230.604691,460.436127 218.695084,457.047852 208.710251,448.788879 
	C195.681702,438.012329 183.529022,426.176849 170.999466,414.797028 
	C171.244370,414.324524 171.489258,413.852051 171.734161,413.379547 
	C173.279251,413.285736 174.824280,413.110840 176.369446,413.109802 
	C238.521591,413.067719 300.674652,413.233551 362.825531,412.937836 
	C397.681519,412.772003 423.697662,429.636536 445.507751,454.691376 
	C458.368866,469.465820 465.578583,486.933533 465.726288,506.670746 
	C465.899689,529.846191 456.609131,549.478577 440.630035,565.772705 
	C432.649597,573.910461 423.452789,580.855408 414.711823,588.421570 
	C420.305481,593.688416 426.415283,599.441162 432.862000,605.511230 
	C436.600159,599.479187 440.792114,592.772034 444.928711,586.030884 
	C476.971130,533.813416 508.981781,481.576538 541.088562,429.398773 
	C543.076172,426.168671 545.524414,423.116089 548.218079,420.444366 
	C561.414612,407.354950 579.952942,409.707123 589.744263,425.648010 
	C620.941223,476.438477 652.095459,527.255249 683.276001,578.055786 
	C700.692993,606.432190 718.132202,634.794922 735.548218,663.171997 
	C736.389709,664.543091 737.101990,665.993530 738.810303,669.119446 
	C727.311890,668.438599 717.248779,667.842651 706.744751,667.196777 
z"/>
<path fill="#30C2B2" opacity="1.000000" stroke="none" 
	d="
M701.362915,467.593567 
	C723.750977,504.016510 745.939148,540.133362 768.845459,577.419128 
	C775.811829,566.339539 782.199585,556.369507 788.399170,546.283875 
	C806.008667,517.636658 823.540283,488.941589 841.104980,460.266815 
	C843.884033,455.730042 846.705322,451.218872 849.454834,446.664337 
	C854.715515,437.950134 862.423889,431.935486 871.329590,427.500702 
	C893.457825,416.481506 917.473755,414.483856 942.279724,412.809570 
	C941.661682,414.436005 941.433044,415.513336 940.890381,416.397980 
	C905.898010,473.440704 870.880676,530.468018 835.864563,587.496155 
	C822.539490,609.197632 809.245972,630.918640 795.846191,652.573792 
	C794.018188,655.527954 791.898071,658.384094 789.498169,660.887817 
	C775.996521,674.973694 757.208496,672.919739 746.952454,656.252808 
	C725.662476,621.654907 704.441833,587.014221 683.186646,552.394897 
	C656.358826,508.699188 629.523193,465.008331 602.699219,421.310272 
	C601.421021,419.228088 600.223145,417.096619 598.573486,414.280884 
	C612.018616,413.425446 624.505981,413.640472 636.976868,415.933929 
	C655.004700,419.249390 671.325989,426.334076 683.449341,440.188171 
	C690.486572,448.230103 695.331543,458.190430 701.362915,467.593567 
z"/>
<path fill="#31C2B2" opacity="1.000000" stroke="none" 
	d="
M378.238739,654.761475 
	C382.564117,658.917114 386.641724,662.820557 391.558411,667.527161 
	C389.120605,667.810120 387.927216,668.064392 386.732819,668.069397 
	C374.901825,668.118958 363.062592,667.856873 351.241364,668.208496 
	C331.706085,668.789490 315.397278,661.427368 301.832062,648.022949 
	C271.256439,617.809753 240.986389,587.287354 210.591324,556.891418 
	C187.617355,533.916870 164.640564,510.945099 141.672363,487.964752 
	C140.439972,486.731720 139.275238,485.431061 137.343552,483.381561 
	C139.919464,483.249847 141.336990,483.114410 142.754562,483.114014 
	C191.412704,483.100586 240.071411,482.972778 288.728638,483.181030 
	C301.979218,483.237732 313.721283,487.556427 323.223602,497.504486 
	C333.203735,507.952667 343.696198,517.911438 353.964752,528.084045 
	C353.808899,528.511169 353.653076,528.938232 353.497223,529.365356 
	C320.586212,529.365356 287.675232,529.365356 254.764221,529.365356 
	C254.588013,529.810303 254.411804,530.255310 254.235596,530.700256 
	C295.487366,571.969910 336.739166,613.239563 378.238739,654.761475 
z"/>
</svg>